<?xml version="1.0" encoding="utf-8"?>
<!-- Generator: Adobe Illustrator 16.0.0, SVG Export Plug-In . SVG Version: 6.00 Build 0)  -->
<!DOCTYPE svg PUBLIC "-//W3C//DTD SVG 1.1//EN" "http://www.w3.org/Graphics/SVG/1.1/DTD/svg11.dtd">
<svg version="1.1" id="圖層_1" xmlns="http://www.w3.org/2000/svg" xmlns:xlink="http://www.w3.org/1999/xlink" x="0px" y="0px"
	 width="130px" height="1820px" viewBox="0 -845 130 1820" enable-background="new 0 -845 130 1820" xml:space="preserve">
<g>
	
		<linearGradient id="SVGID_1_" gradientUnits="userSpaceOnUse" x1="-81.3438" y1="1131.2939" x2="13.4018" y2="1042.2813" gradientTransform="matrix(1 0 0 -1 102.3999 310.0098)">
		<stop  offset="0" style="stop-color:#F27844"/>
		<stop  offset="0.7179" style="stop-color:#CF4218"/>
	</linearGradient>
	<circle fill="url(#SVGID_1_)" cx="65" cy="-780" r="65"/>
	<polygon fill="#FFFFFF" points="95.68,-798.53 96.811,-810.77 35.22,-810.77 38.23,-772.439 80.99,-772.439 79.67,-757.23 
		66.02,-753.29 52.36,-757.33 51.23,-767.27 38.8,-767.09 40.68,-747.45 66.02,-740.01 91.35,-747.45 94.359,-785.78 49.53,-786.17 
		48.59,-798.49 	"/>
</g>
<g>
	
		<linearGradient id="SVGID_2_" gradientUnits="userSpaceOnUse" x1="-81.3438" y1="1001.2949" x2="13.4024" y2="912.2817" gradientTransform="matrix(1 0 0 -1 102.3999 310.0098)">
		<stop  offset="0" style="stop-color:#4AB4E1"/>
		<stop  offset="0.7179" style="stop-color:#0C73B8"/>
	</linearGradient>
	<circle fill="url(#SVGID_2_)" cx="65" cy="-650" r="65"/>
	<g>
		<polygon fill-rule="evenodd" clip-rule="evenodd" fill="#FFFFFF" points="33.06,-687.09 96.94,-687.09 91.22,-620.74 
			64.71,-612.91 38.479,-620.561 36.87,-641.32 50.06,-641.471 50.64,-631.03 64.71,-627.08 78.92,-631.291 80.239,-647.711 
			50.64,-647.57 49.76,-660.69 81.7,-661.07 82.729,-673.971 34.239,-673.971 		"/>
	</g>
</g>
<g>
	
		<linearGradient id="SVGID_3_" gradientUnits="userSpaceOnUse" x1="-81.3433" y1="221.2949" x2="13.4024" y2="132.2822" gradientTransform="matrix(1 0 0 -1 102.3999 310.0098)">
		<stop  offset="0" style="stop-color:#8E74B6"/>
		<stop  offset="0.7179" style="stop-color:#4F3971"/>
	</linearGradient>
	<circle fill="url(#SVGID_3_)" cx="65" cy="130" r="65"/>
	<path fill-rule="evenodd" clip-rule="evenodd" fill="#FFFFFF" d="M60.913,107.899c-3.619,0-6.439,0.041-9.26-0.01
		c-1.27-0.029-1.819,0.33-1.799,1.69c0.059,4.899,0.029,9.81,0.02,14.71c0,0.85,0.09,1.51,1.23,1.49
		c6.34-0.121,12.709,0.43,19.02-0.5c5.039-0.75,7.46-3.76,7.369-8.78c-0.09-5.101-2.26-7.54-7.51-8.31
		C66.714,107.71,63.403,107.95,60.913,107.899z M60.894,152.03v-0.041c3.061,0,6.121,0.101,9.17-0.02
		c5.75-0.24,9.391-3.6,9.771-8.88c0.409-5.75-2.149-8.88-8.229-10.03c-0.691-0.13-1.4-0.26-2.101-0.27
		c-5.95-0.04-11.899-0.04-17.851-0.1c-1.27-0.011-1.819,0.34-1.799,1.689c0.059,5.359,0.049,10.721,0,16.08
		c-0.01,1.21,0.439,1.609,1.639,1.58C54.634,151.989,57.765,152.03,60.894,152.03z M78.134,128.22c7.6,3.2,10.54,7.67,10.23,15.141
		c-0.27,6.47-4.82,12.41-11.19,14.58c-2.149,0.729-4.37,1.149-6.681,1.14c-8.779-0.04-17.559-0.07-26.34,0.021
		c-1.939,0.02-2.539-0.551-2.539-2.471c0.07-17.79,0.06-35.57,0.02-53.35c0-1.51,0.12-2.4,2.09-2.381
		c8.78,0.11,17.57-0.029,26.35,0.121c4.271,0.069,8.381,0.859,11.631,4.06c6.449,6.36,5.52,16.989-2.02,22.069
		C79.243,127.44,78.813,127.75,78.134,128.22z"/>
</g>
<g>
	
		<linearGradient id="SVGID_4_" gradientUnits="userSpaceOnUse" x1="-81.3433" y1="611.2949" x2="13.4028" y2="522.2817" gradientTransform="matrix(1 0 0 -1 102.3999 310.0098)">
		<stop  offset="0" style="stop-color:#0987DB"/>
		<stop  offset="0.7179" style="stop-color:#055A94"/>
	</linearGradient>
	<circle fill="url(#SVGID_4_)" cx="65" cy="-260" r="65"/>
	<g>
		<path fill-rule="evenodd" clip-rule="evenodd" fill="#FFFFFF" d="M100.685-243.117c-5.01,9.229-17.93,19.84-35.74,19.02
			c-16.74-0.77-31.289-11.78-36.061-27.92c-4.41-14.92,1.221-30.02,10.51-38.051c-4.93,8.91-6.439,18.311-4,28.19
			c2.461,9.91,8.201,17.57,16.791,23.181C64.954-230.367,85.624-229.378,100.685-243.117z"/>
		<path fill-rule="evenodd" clip-rule="evenodd" fill="#FFFFFF" d="M102.644-261.588c-2.559,7.66-15.309,14.4-26.5,13.891
			c-12.42-0.57-23.02-9.221-26.209-21.021c-2.91-10.79,1.369-21.851,7.789-27.229c-6.318,13.39-4.68,25.439,6.75,35.5
			c5.381,4.739,11.971,6.709,19.201,6.52C90.894-254.107,97.104-256.758,102.644-261.588z"/>
		<path fill-rule="evenodd" clip-rule="evenodd" fill="#FFFFFF" d="M99.325-275.738c-2.541,5.131-9.531,8.59-15.82,8.041
			c-6.84-0.601-12.721-5.371-14.641-11.73c-1.939-6.45,0.65-13.08,4.391-16.2c-3.611,8.17-2.611,15.41,4.5,20.78
			C84.825-269.508,92.185-270.378,99.325-275.738z"/>
	</g>
</g>
<g>
	
		<linearGradient id="SVGID_5_" gradientUnits="userSpaceOnUse" x1="-81.3438" y1="871.2949" x2="13.4021" y2="782.282" gradientTransform="matrix(1 0 0 -1 102.3999 310.0098)">
		<stop  offset="0" style="stop-color:#6BC7C1"/>
		<stop  offset="0.7179" style="stop-color:#31827B"/>
	</linearGradient>
	<circle fill="url(#SVGID_5_)" cx="65" cy="-520" r="65"/>
	<g>
		<path fill-rule="evenodd" clip-rule="evenodd" fill="#FFFFFF" d="M95.476-511.669c0-2.909-0.01-5.739,0-8.569
			c0.021-7.82,0.021-15.641,0.08-23.451c0.01-1.049-0.41-1.319-1.32-1.299c-1.729,0.02-3.459,0-5.189,0h-52.59
			c-2.449,0-2.46,0-2.46,2.49c0,9.67,0.04,19.34-0.03,29.01c-0.01,1.59,0.439,2.09,2.041,2.069
			c5.479-0.09,10.959,0.011,16.439-0.069c1.609-0.021,2.289,0.42,2.25,2.14c-0.131,5.61,0.57,4.67-4.66,4.72
			c-5.311,0.051-10.62,0.02-15.92,0.01c-3.75-0.01-5.42-1.59-5.439-5.369c-0.041-11.871,0-23.74-0.021-35.61
			c-0.01-3.17,1.66-5.229,5.182-5.21c20.93,0.1,41.869,0.05,62.809,0.05c3.561,0,4.851,1.31,4.851,4.931v36.479
			c0,3.05-1.591,4.659-4.681,4.72c-0.809,0.02-1.609,0.01-2.42,0.01c-2.399-0.01-2.449-0.06-2.469-2.39v-0.521
			C91.927-511.109,91.927-511.109,95.476-511.669z"/>
		<path fill-rule="evenodd" clip-rule="evenodd" fill="#FFFFFF" d="M55.905-511.939c0-5.729,0-11.459,0.011-17.199
			c0-3.74,1.53-5.27,5.239-5.27c7.73-0.011,15.461-0.011,23.191,0c3.51,0,5.02,1.539,5.029,5.08c0,1.799-0.05,3.59,0.01,5.389
			c0.03,1.121-0.439,1.561-1.529,1.57c-4.9,0.051-3.86,0.11-3.961-3.629c-0.01-0.41-0.039-0.82,0-1.221
			c0.141-1.23-0.299-1.76-1.629-1.75c-6.461,0.05-12.92,0.05-19.381,0.01c-1.209-0.01-1.6,0.43-1.6,1.62
			c0.029,10.08,0.04,20.149,0,30.229c-0.01,1.301,0.449,1.74,1.721,1.701c1.949-0.07,3.92,0.01,5.879-0.021
			c1.15-0.021,1.631,0.479,1.701,1.649c0.279,4.15,0.309,4.15-3.771,4.15c-2.02,0-4.029,0.01-6.049,0
			c-3.25-0.01-4.84-1.619-4.851-4.939C55.896-500.359,55.905-506.148,55.905-511.939z"/>
		<path fill-rule="evenodd" clip-rule="evenodd" fill="#FFFFFF" d="M81.166-490.738h0.78c0.42-0.69,1.209-1.391,1.17-2.051
			c-0.029-0.59-1.08-1.66-1.5-1.57c-0.7,0.131-1.66,0.961-1.75,1.601C79.786-492.158,80.696-491.419,81.166-490.738z
			 M81.456-519.158c-1.49,0-2.98-0.051-4.471,0.029c-0.35,0.02-0.689,0.42-1.039,0.65c0.34,0.24,0.68,0.67,1.029,0.68
			c2.971,0.061,5.951,0.061,8.93,0c0.352,0,0.691-0.43,1.041-0.66c-0.34-0.24-0.67-0.65-1.03-0.67
			C84.437-519.209,82.946-519.158,81.456-519.158z M88.416-506.199c0-2.43-0.03-4.859,0.021-7.289c0.02-1.121-0.41-1.53-1.531-1.521
			c-3.629,0.05-7.26,0.06-10.889,0c-1.32-0.03-1.69,0.53-1.68,1.761c0.039,4.68,0.039,9.369,0,14.059
			c-0.011,1.281,0.489,1.74,1.739,1.721c3.579-0.04,7.149-0.04,10.72,0c1.17,0.02,1.67-0.38,1.641-1.609
			C88.376-501.449,88.416-503.818,88.416-506.199z M91.315-505.419c0,3.65-0.029,7.29,0.011,10.94c0.04,2.949-1.39,5.46-5.319,5.24
			c-3.451-0.201-6.92-0.03-10.371-0.051c-2.41-0.02-3.879-1.31-4.24-3.68c-0.109-0.68-0.17-1.38-0.17-2.07
			c-0.02-6.89-0.029-13.779-0.01-20.66c0.02-4.369,1.49-5.819,5.84-5.819c3.121,0,6.23-0.021,9.34,0.01
			c3.121,0.021,4.84,1.649,4.9,4.8C91.366-512.949,91.315-509.179,91.315-505.419z"/>
		<path fill-rule="evenodd" clip-rule="evenodd" fill="#FFFFFF" d="M32.226-494.599c1.66,0.95,10.111,0.81,11.07-0.101
			C42.087-495.589,33.546-495.589,32.226-494.599z M43.046-498.509c3.23,0,6.45,0.04,9.68-0.021c1.391-0.02,2,0.5,1.951,1.931
			c-0.061,1.851-0.041,3.7-0.011,5.55c0.011,1.09-0.46,1.6-1.55,1.6c-6.68-0.02-13.359,0.061-20.04-0.08
			c-3.12-0.069-4.64-1.84-4.569-4.68c0.059-2.55,1.869-4.21,4.869-4.279C36.597-498.559,39.826-498.509,43.046-498.509z"/>
		<path fill-rule="evenodd" clip-rule="evenodd" fill="#FFFFFF" d="M95.166-498.509c2.479-0.069,4.79,0.28,5.89,2.94
			c1.031,2.49-0.529,5.33-3.16,5.899c-5.199,1.13-5.969,0.521-5.969-4.76v-0.86C91.927-498.519,91.927-498.519,95.166-498.509z"/>
	</g>
</g>
<g>
	
		<linearGradient id="SVGID_6_" gradientUnits="userSpaceOnUse" x1="-81.3433" y1="351.2949" x2="13.4028" y2="262.2817" gradientTransform="matrix(1 0 0 -1 102.3999 310.0098)">
		<stop  offset="0" style="stop-color:#D26FA0"/>
		<stop  offset="0.7179" style="stop-color:#9A3065"/>
	</linearGradient>
	<circle fill="url(#SVGID_6_)" cx="65" cy="0" r="65"/>
	<path fill-rule="evenodd" clip-rule="evenodd" fill="#FFFFFF" d="M86.005,11.061c-0.029,1.74-0.91,2.951-2.439,3.761
		c-0.23,0.12-0.51,0.33-0.77,0.09c-0.211-0.2-0.09-0.47-0.01-0.7c0.469-1.49,1.238-2.81,2.34-3.939c0.17-0.17,0.318-0.48,0.59-0.391
		c0.32,0.11,0.26,0.461,0.289,0.73C86.024,10.762,86.005,10.911,86.005,11.061z M71.194,17.691l3.701-4.18
		C75.075,15.081,73.136,17.321,71.194,17.691z M59.935,4.721c-0.289,1.431-0.75,2.801-1.24,4.17c-0.85,2.32-1.75,4.621-2.779,6.871
		c-0.221,0.479-0.49,0.939-0.811,1.359c-0.51,0.68-0.959,0.609-1.26-0.189c-0.309-0.82-0.379-1.69-0.41-2.351
		c0.08-3.649,1.311-6.7,3.441-9.42c0.459-0.59,1.049-1.069,1.75-1.39c0.369-0.17,0.77-0.391,1.148-0.09
		C60.126,3.951,60.015,4.361,59.935,4.721z M43.726,15.451c-0.01,4.43-3.25,8.561-7.48,9.63c-2.24,0.56-3.4-0.46-3.02-2.67
		c0.32-1.8,1.27-3.28,2.6-4.521c2.029-1.869,4.35-3.359,6.74-4.76c0.58-0.35,0.84-0.22,0.949,0.42
		C43.626,14.221,43.765,14.881,43.726,15.451z M105.774,9.98c-1.619-3.17-4.43-4.739-7.869-5.309
		c-3.15-0.521-6.23-0.191-9.189,1.059c-0.361,0.15-0.781,0.431-1.07-0.1c-0.59-1.119-1.211-2.229-1.461-3.5
		c-0.379-1.89,0.021-3.67,0.621-5.449c0.35-1.021,0.119-1.311-0.951-1.551c-0.889-0.189-1.76,0.03-2.629,0.131
		c-0.77,0.1-1.27,0.459-1.439,1.25c-0.441,2.109-1.352,4.039-2.42,5.899c-0.932,1.63-1.811,3.29-2.941,4.91
		c-0.709-1.07-1.049-2.14-1.209-3.28c-0.25-1.74,0.08-3.369,0.68-4.99c0.369-1.01,0.08-1.43-1.01-1.57
		c-0.691-0.09-1.391-0.069-2.08,0.031c-1.51,0.229-1.68,0.39-2.051,1.859c-0.09,0.359-0.17,0.73-0.311,1.07
		c-2.26,5.17-4.52,10.33-7.1,15.35c-0.119,0.221-0.17,0.551-0.629,0.53c-0.16-0.96-0.01-1.899,0.229-2.82
		c0.531-2.069,1.08-4.13,1.621-6.19c0.471-1.819-0.08-2.459-1.971-2.189c-0.469,0.07-0.479-0.1-0.459-0.42
		c0.02-0.25,0.07-0.49,0.09-0.74c0.189-2.939-1.67-4.27-4.48-3.189c-0.199,0.08-0.4,0.17-0.6,0.27
		c-1.711,0.86-3.141,2.061-4.34,3.52c-0.24,0.291-0.461,0.591-0.811,0.771c-2.35,1.261-4.709,2.521-7.051,3.8
		c-0.43,0.23-0.738,0.19-1.078-0.16c-1.15-1.199-2.49-2.189-3.811-3.199c-2.211-1.69-4.51-3.291-6.34-5.41
		c-2.201-2.551-2.641-5.381-1.391-8.471c0.891-2.209,2.369-4.029,4.18-5.539c6.35-5.32,13.531-9.061,21.77-10.7
		c3.25-0.65,6.521-0.75,9.75,0.22c3.611,1.08,4.932,3.63,3.691,7.12c-0.631,1.75-1.631,3.28-2.9,4.63
		c-3.699,3.92-8.359,6.13-13.67,7.02c-3.67,0.61-7.279,0.67-10.18-2.219c-0.17-0.16-0.391-0.221-0.611-0.07
		c-0.199,0.149-0.219,0.369-0.16,0.59c0.16,0.64,0.461,1.21,0.922,1.699c1.459,1.57,3.279,2.49,5.42,2.791
		c4.318,0.6,8.51-0.01,12.59-1.431c5.85-2.04,10.25-5.729,12.529-11.46c2.131-5.34,0.779-10.48-5.461-12.82
		c-4.42-1.66-8.979-1.699-13.539-0.83c-7.01,1.34-13.35,4.32-19.27,8.141c-3.92,2.52-7.34,5.55-9.84,9.49
		c-0.92,1.459-1.441,3.07-2.041,4.65v2.779c0.27,0.88,0.23,1.84,0.701,2.66c1.039,1.82,2.379,3.41,3.959,4.8
		c1.951,1.71,4.07,3.21,6.23,4.649c1.119,0.75,2.26,1.48,3.32,2.311c0.51,0.4,0.51,0.74-0.09,1.04c-0.23,0.12-0.461,0.22-0.682,0.34
		c-3.02,1.671-5.93,3.49-8.398,5.931c-2.111,2.069-3,4.5-2.84,7.35c0.16,2.641,1.738,4.279,4.369,4.54
		c0.1,0.01,0.189,0.03,0.26,0.101h3.221c2.279-0.141,4.389-0.671,6.219-2.131c2.74-2.189,4.65-4.811,5.311-8.279
		c0.43-2.23,0.359-4.41-0.23-6.59c-0.139-0.511-0.16-1,0.33-1.33c0.691-0.471,1.4-0.91,2.291-1.24
		c-0.25,1.379-0.51,2.649-0.59,3.939c-0.17,2.75,0.469,5.26,2.029,7.551c0.57,0.83,1.41,1.189,2.41,1.289
		c1.51,0.15,2.529-0.609,3.33-1.729c0.76-1.06,1.24-2.28,1.83-3.421c-0.07,0.99,0.209,2.15,0.721,2.99
		c0.689,1.131,2.318,1.461,3.369,0.631c0.791-0.621,1.551-1.301,2.061-2.16c1.809-3.051,3.469-6.17,4.98-9.36
		c0.59-1.26,1.119-2.54,1.789-3.989c0.279,1.27,0.539,2.379,1.141,3.299c0.898,1.371,0.639,2.48-0.461,3.551
		c-0.09,0.08-0.17,0.18-0.25,0.279c-1.27,1.61-2.77,3.051-3.9,4.771c-0.91,1.38-0.148,2.78,1.521,2.92
		c2.59,0.21,4.859-0.63,6.92-2.06c0.76-0.53,1.43-1.211,1.889-2.051c1-1.81,0.941-3.67,0.32-5.56c-0.189-0.569-0.33-1.14,0.051-1.69
		c1.15-1.699,2.139-3.49,3.189-5.25c0.09-0.149,0.17-0.369,0.41-0.31c0.16,0.04,0.199,0.22,0.24,0.37
		c0.299,1.07,0.67,2.119,1.17,3.119c0.279,0.551,0.119,0.99-0.33,1.41c-0.83,0.761-1.551,1.631-2.189,2.551
		c-0.961,1.359-1.711,2.82-1.641,4.539c0.061,1.511,0.93,2.4,2.471,2.32c2.459-0.109,4.369-1.359,6.109-2.979
		c1.629-1.521,2.1-3.31,1.709-5.399c-0.229-1.191-0.09-1.441,1.16-1.74c2.602-0.621,5.201-0.5,7.781,0.149
		c1.139,0.29,2.199,0.771,3.16,1.44c3.059,2.13,3.18,5.01,0.318,7.34c-0.119,0.1-0.26,0.18-0.359,0.3
		c-0.23,0.261-0.26,0.56-0.119,0.87c0.17,0.34,0.459,0.51,0.84,0.47c0.289-0.03,0.561-0.13,0.82-0.239
		c1.85-0.801,2.959-2.141,3.119-4.16v-2.221C106.255,11.251,106.085,10.581,105.774,9.98z"/>
</g>
<g>
	
		<linearGradient id="SVGID_7_" gradientUnits="userSpaceOnUse" x1="-81.3433" y1="-298.7051" x2="13.4024" y2="-387.7178" gradientTransform="matrix(1 0 0 -1 102.3999 310.0098)">
		<stop  offset="0" style="stop-color:#356FB3"/>
		<stop  offset="0.7179" style="stop-color:#181F4B"/>
	</linearGradient>
	<circle fill="url(#SVGID_7_)" cx="65" cy="650" r="65"/>
	<g>
		<path fill-rule="evenodd" clip-rule="evenodd" fill="#2CA8DB" d="M41.213,650.73c3.801,0.219,7.461,0.41,10.971-0.961
			c3.301-1.289,5.061-3.8,5.379-7.27c0.342-3.67-0.449-6.98-3.859-9.02c-3.91-2.33-8.199-1.771-12.49-1.531V650.73z M41.164,659.04
			v5.62c0,3.42-0.031,6.85,0.02,10.27c0.01,0.971-0.27,1.32-1.279,1.301c-2.25-0.07-4.512-0.061-6.771-0.011
			c-0.949,0.021-1.289-0.35-1.199-1.229c0.02-0.19,0-0.381,0-0.57l0.01-48.67c0-1.83,0-1.87,1.84-1.87
			c5.689,0,11.41-0.36,17.051,0.149c7.17,0.65,12.84,4,15.18,11.311c3.5,10.93-2.57,20.96-13.961,23.08
			c-2.529,0.46-5.139,0.439-7.719,0.609C43.354,659.09,42.373,659.04,41.164,659.04z"/>
		<path fill-rule="evenodd" clip-rule="evenodd" fill="#2CA8DB" d="M71.703,665.72c2.781,0.88,5.301,1.96,7.939,2.45
			c2.061,0.37,4.281,0.15,6.41-0.07c1.42-0.15,2.48-1.119,2.791-2.63c0.311-1.53-0.43-2.71-1.65-3.46
			c-1.75-1.07-3.641-1.93-5.439-2.92c-1.971-1.08-4.07-2.01-5.84-3.359c-6.141-4.711-5.57-13.92,1.02-18
			c3.801-2.34,8.01-2.531,12.27-2.131c1.82,0.17,3.6,0.641,5.391,1.01c0.959,0.201,1.369,0.781,1.34,1.811
			c-0.07,2.23-0.02,4.46-0.02,6.971c-0.711-0.271-1.121-0.431-1.531-0.591c-3.398-1.38-6.898-2.159-10.59-1.55
			c-1.57,0.26-2.92,0.939-3.299,2.641c-0.391,1.76,0.66,2.879,2.02,3.67c1.58,0.909,3.26,1.649,4.879,2.51
			c2.061,1.1,4.262,2.039,6.131,3.42c6.74,4.97,5.84,14.91-1.619,18.779c-3.82,1.971-7.941,2.25-12.102,1.771
			c-2.309-0.261-4.568-0.97-6.84-1.53c-0.939-0.23-1.309-0.859-1.279-1.88C71.744,670.3,71.703,667.97,71.703,665.72z"/>
	</g>
</g>
<g>
	
		<linearGradient id="SVGID_8_" gradientUnits="userSpaceOnUse" x1="-81.3433" y1="-428.7056" x2="13.4028" y2="-517.7188" gradientTransform="matrix(1 0 0 -1 102.3999 310.0098)">
		<stop  offset="0" style="stop-color:#ED7C22"/>
		<stop  offset="0.7179" style="stop-color:#9E4822"/>
	</linearGradient>
	<circle fill="url(#SVGID_8_)" cx="65" cy="780" r="65"/>
	<g>
		<linearGradient id="SVGID_9_" gradientUnits="userSpaceOnUse" x1="33.3501" y1="762.5322" x2="83.6858" y2="819.8672">
			<stop  offset="0" style="stop-color:#FDD02E"/>
			<stop  offset="0.7179" style="stop-color:#FBB830"/>
		</linearGradient>
		<path fill-rule="evenodd" clip-rule="evenodd" fill="url(#SVGID_9_)" d="M56.449,763.927c-0.07,0.281-0.121,0.41-0.141,0.551
			c-1.26,6.529-3.061,12.93-4.74,19.369c-0.1,0.381-0.07,0.521,0.391,0.511c3.09-0.011,6.18-0.011,9.27,0
			c0.48,0,0.551-0.11,0.43-0.57c-1.369-5.069-2.721-10.14-4.07-15.21C57.199,767.077,56.848,765.558,56.449,763.927z
			 M56.289,754.427h5.879c0.77,0,0.871,0.08,1.111,0.801c2.859,8.81,5.549,17.68,8.27,26.539c2.369,7.721,4.719,15.451,7.17,23.15
			c0.119,0.381,0.199,0.771,0.25,1.17c0.049,0.45-0.141,0.67-0.58,0.711c-0.141,0.02-0.281,0.02-0.43,0.02h-8.941
			c-0.859,0-1-0.1-1.25-0.93c-1.219-3.871-2.439-7.75-3.629-11.631c-0.16-0.5-0.381-0.64-0.9-0.64c-4.49,0.021-8.98,0.021-13.471,0
			c-0.488,0-0.689,0.149-0.809,0.601c-1.111,3.959-2.24,7.92-3.352,11.879c-0.139,0.49-0.42,0.721-0.908,0.721l-8.682-0.01
			c-0.479,0-0.719-0.211-0.67-0.721c0.08-0.91,0.432-1.76,0.691-2.629c3.639-12.131,7.289-24.261,10.93-36.391
			c0.689-2.301,1.359-4.609,2.061-6.9c0.289-0.939,0.35-1.89,0.34-2.85l-0.012-1.84c0-0.891,0.172-1.051,1.061-1.051H56.289z"/>
		<linearGradient id="SVGID_10_" gradientUnits="userSpaceOnUse" x1="52.2373" y1="745.9502" x2="102.5727" y2="803.2848">
			<stop  offset="0" style="stop-color:#FDD02E"/>
			<stop  offset="0.7179" style="stop-color:#FBB830"/>
		</linearGradient>
		<path fill-rule="evenodd" clip-rule="evenodd" fill="url(#SVGID_10_)" d="M94.119,787.597v18.431c0,0.58-0.15,0.771-0.75,0.78
			c-3.07,0.01-6.141,0.01-9.211,0c-0.68-0.01-0.859-0.221-0.859-0.811v-21.41l-0.01-15.33c0-0.979,0.18-1.16,1.189-1.16h8.52
			c0.91,0,1.1,0.19,1.1,1.08v18.42H94.119z"/>
		<linearGradient id="SVGID_11_" gradientUnits="userSpaceOnUse" x1="66.6318" y1="733.3184" x2="116.9616" y2="790.6465">
			<stop  offset="0" style="stop-color:#FDD02E"/>
			<stop  offset="0.7179" style="stop-color:#FBB830"/>
		</linearGradient>
		<path fill-rule="evenodd" clip-rule="evenodd" fill="url(#SVGID_11_)" d="M94.658,758.777c0.02,3.271-2.119,5.38-5.49,5.431
			c-0.959,0.02-1.9-0.07-2.789-0.421c-1.98-0.79-3.23-2.69-3.131-4.771c0.041-0.68,0.031-1.359,0.221-2.029
			c0.5-1.779,1.67-2.939,3.459-3.49c1.48-0.46,2.98-0.41,4.441,0.12C93.479,754.388,94.639,756.218,94.658,758.777z"/>
	</g>
</g>
<g>
	
		<linearGradient id="SVGID_12_" gradientUnits="userSpaceOnUse" x1="-81.3433" y1="-558.7051" x2="13.4029" y2="-647.7183" gradientTransform="matrix(1 0 0 -1 102.3999 310.0098)">
		<stop  offset="0" style="stop-color:#8F8545"/>
		<stop  offset="0.7179" style="stop-color:#515339"/>
	</linearGradient>
	<circle fill="url(#SVGID_12_)" cx="65" cy="910" r="65"/>
	<g>
		<path fill-rule="evenodd" clip-rule="evenodd" fill="#E4EA08" d="M71.292,923.6l3.461-19.891c0.299-1.77,0.66-3.529,0.939-5.299
			c0.119-0.711,0.459-0.98,1.16-0.971c2.26,0.02,4.52,0.041,6.779-0.02c0.83-0.01,1.15,0.34,1.281,1.08
			c0.75,4.27,1.539,8.539,2.27,12.811c0.68,3.959,1.309,7.92,2.01,12.119c0.33-2.23,0.59-4.26,0.93-6.27
			c1.08-6.281,2.18-12.551,3.26-18.82c0.109-0.59,0.381-0.91,1.01-0.9c2.291,0.01,4.59,0.01,6.881-0.01
			c1.09-0.01,0.789,0.689,0.65,1.25c-1.191,5.039-2.41,10.08-3.621,15.109l-4.449,18.57c-0.371,1.57-0.391,1.59-2.031,1.59
			c-2.158,0-4.318-0.029-6.479,0.01c-0.82,0.021-1.141-0.309-1.271-1.068c-1.318-7.922-2.658-15.82-4-23.73
			c-0.09-0.531-0.129-1.07-0.229-1.871c-0.83,3.99-1.59,7.711-2.371,11.42c-1.01,4.73-2.049,9.461-3.049,14.191
			c-0.16,0.77-0.521,1.068-1.311,1.059c-2.23-0.039-4.461-0.039-6.68,0c-0.85,0.01-1.27-0.27-1.461-1.148
			c-2.119-9.721-4.27-19.441-6.42-29.15c-0.369-1.721-0.75-3.441-1.15-5.15c-0.18-0.75,0.012-1.08,0.82-1.07
			c2.67,0.02,5.33,0.02,8,0c0.711-0.01,1.031,0.291,1.141,0.99c1.129,7.189,2.289,14.381,3.43,21.57
			C70.972,921.129,71.112,922.27,71.292,923.6z"/>
		<path fill-rule="evenodd" clip-rule="evenodd" fill="#E4EA08" d="M37.552,914.969v17.271c0,1.709,0,1.709-1.67,1.709
			c-2.26,0-4.52-0.029-6.779,0.01c-0.891,0.021-1.18-0.299-1.17-1.18c0.02-15.23,0.029-30.459,0.02-45.689
			c0-0.811,0.27-1.051,1.051-1.051c8.27,0.021,16.539,0.021,24.809,0c0.781,0,1.16,0.24,1.24,1.07
			c0.189,2.02,0.451,4.041,0.711,6.051c0.129,0.99-0.441,1.029-1.16,1.02c-5.26-0.01-10.531,0-15.801,0h-1.24v12.619h1.111h13.979
			c1.271,0,1.301,0.041,1.301,1.32c0.01,1.84,0.01,3.67,0,5.5c0,1.18-0.16,1.35-1.35,1.35H38.731H37.552z"/>
	</g>
</g>
<g>
	
		<linearGradient id="SVGID_13_" gradientUnits="userSpaceOnUse" x1="-81.3428" y1="-38.7051" x2="13.4028" y2="-127.7178" gradientTransform="matrix(1 0 0 -1 102.3999 310.0098)">
		<stop  offset="0" style="stop-color:#535353"/>
		<stop  offset="0.7179" style="stop-color:#000000"/>
	</linearGradient>
	<circle fill="url(#SVGID_13_)" cx="65" cy="390" r="65"/>
	<path fill="#FFFFFF" d="M96.286,378.65c-0.6-0.58-0.43-1.19-0.17-1.85c1.75-4.48,1.48-8.961-0.07-13.431
		c-0.289-0.851-0.73-1.05-1.6-0.819c-2.26,0.6-4.26,1.619-5.95,3.26c-1.88,1.81-3.78,3.59-5.62,5.34
		c-1.57-0.551-3.25-1.33-5.01-1.711c-4.54-0.979-9.17-1.059-13.79-0.789c-4.18,0.25-8.42,0.34-11.999,2.92
		c-1.4-1.59-2.691-3.17-4.111-4.631c-2.07-2.139-4.549-3.639-7.449-4.43c-0.791-0.209-1.061-0.02-1.32,0.771
		c-1.5,4.601-1.721,9.17-0.1,13.79c0.17,0.47-0.041,1.32-0.391,1.68c-2.279,2.311-3.58,5.11-4.301,8.221
		c-1.119,4.859-1.148,9.779-1.02,14.729c0.15,5.88,2.361,10.89,6.43,15.069c3.852,3.951,8.711,6,13.98,7.221
		c1.33,0.3,2.68,0.529,4.121,0.82c-0.221,0.399-0.371,0.709-0.551,0.99c-1.09,1.729-1.65,3.639-1.98,5.639
		c-0.49,3,0.15,2.66-3.139,3.4c-5.092,1.16-9.592-0.039-13.291-3.74c-1.16-1.16-2.09-2.569-2.99-3.949
		c-1.811-2.77-4.09-4.86-7.469-5.381c-1.361-0.209-2.781-0.469-4.281,0.5l1.439,1.461c0.861,0.859,1.891,1.609,2.561,2.609
		c2.15,3.221,4.16,6.53,6.24,9.801c0.471,0.74,0.92,1.5,1.5,2.16c4.08,4.729,9.35,6.27,15.391,5.689c1.24-0.12,2.48-0.26,3.719-0.38
		v10.635C58.305,454.741,61.623,455,65,455c5.171,0,10.193-0.622,15.015-1.763c-0.004-5.141-0.036-10.288,0.012-15.427
		c0.039-4.521-0.1-8.971-2.801-12.871c0.18-0.1,0.26-0.18,0.361-0.209c0.239-0.051,0.479-0.07,0.729-0.11
		c4.25-0.63,8.32-1.819,12.051-4c6.96-4.069,10.96-10.12,11.359-18.181c0.211-4.34-0.199-8.729-0.539-13.079
		C100.866,385.24,99.347,381.57,96.286,378.65z"/>
</g>
<g>
	
		<linearGradient id="SVGID_14_" gradientUnits="userSpaceOnUse" x1="-81.3433" y1="91.2949" x2="13.4028" y2="2.2817" gradientTransform="matrix(1 0 0 -1 102.3999 310.0098)">
		<stop  offset="0" style="stop-color:#F26951"/>
		<stop  offset="0.7179" style="stop-color:#CC2C0F"/>
	</linearGradient>
	<circle fill="url(#SVGID_14_)" cx="65" cy="260" r="65"/>
	<path fill-rule="evenodd" clip-rule="evenodd" fill="#FFFFFF" d="M69.835,297.589c2.641-4.27,1.48-9.75-2.811-12.79
		c-1-0.72-1.369-1.46-1.359-2.64c0.029-10.28,0.01-20.57,0.029-30.86c0-0.58-0.289-1.39,0.34-1.7c0.691-0.33,1.051,0.49,1.451,0.891
		c3.59,3.5,7.119,7.05,10.73,10.52c0.949,0.9,1.119,1.74,0.818,2.971c-1.229,5.069,1.91,10.129,6.961,11.369
		c5.15,1.26,10.391-1.689,11.73-6.59c1.41-5.17-1.441-10.32-6.541-11.811c-1.619-0.469-3.27-0.439-4.89-0.129
		c-0.97,0.189-1.61-0.08-2.261-0.73c-4.068-4.04-8.159-8.08-12.27-12.09c-0.77-0.75-0.93-1.48-0.76-2.54
		c0.811-5.21-1.9-9.61-6.67-11.011c-1.609-0.469-3.26-0.399-4.891-0.17c-0.889,0.121-1.489-0.109-2.109-0.719
		c-3.96-3.94-7.93-7.891-11.949-11.781l-5.471,5.4c3.77,3.84,7.63,7.6,11.49,11.35c0.811,0.791,1.061,1.521,0.8,2.66
		c-1.04,4.51,0.521,8.19,4.47,10.631c0.95,0.59,1.291,1.24,1.28,2.3c-0.021,10.62-0.05,21.25,0.03,31.87
		c0.01,1.47-0.791,2.02-1.82,2.689c-3.279,2.141-4.949,6.16-4.131,9.77c0.9,4.041,3.941,6.931,8.061,7.65
		C63.705,302.739,67.835,300.829,69.835,297.589z"/>
</g>
<g>
	
		<linearGradient id="SVGID_15_" gradientUnits="userSpaceOnUse" x1="-81.3428" y1="-168.7051" x2="13.4033" y2="-257.7183" gradientTransform="matrix(1 0 0 -1 102.3999 310.0098)">
		<stop  offset="0" style="stop-color:#EB6363"/>
		<stop  offset="0.7179" style="stop-color:#AF1818"/>
	</linearGradient>
	<circle fill="url(#SVGID_15_)" cx="65" cy="520" r="65"/>
	<g>
		<path fill-rule="evenodd" clip-rule="evenodd" fill="#FFFFFF" d="M78.589,529.536c-5.898,4.02-7.32,4.159-10.199,1.34
			c-6.211,2.77-6.44,2.729-7.971-1.201c-2.02,0.99-3.97,2.271-6.109,2.91c-3.291,0.98-5.99-1.47-5.051-4.75
			c1.25-4.369,3.041-8.59,4.76-12.81c0.58-1.44,2.021-2.489,3.4-1.3c0.65,0.561,0.75,2.42,0.391,3.43c-1.18,3.24-2.7,6.36-4.08,9.52
			l0.8,0.9c1.149-0.51,2.72-0.71,3.38-1.6c1.91-2.561,3.46-5.381,5.13-8.12c0.22-0.38,0.29-0.851,0.47-1.261
			c0.65-1.51,1.061-3.869,3.211-3.1c2.52,0.9,1.289,3.131,0.67,4.85c-1.09,3.011-2.27,5.98-3.57,9.391
			c2.85,0.16,4.371-0.609,5.23-2.85c3-7.78,6.049-15.53,9.1-23.28c0.291-0.75,0.541-1.72,1.131-2.08
			c0.809-0.51,2.02-0.899,2.85-0.64c0.539,0.16,0.91,1.56,0.949,2.43c0.051,0.74-0.459,1.52-0.76,2.26
			c-2.77,6.811-5.561,13.6-8.311,20.42c-0.42,1.041-0.66,2.16-1.209,4.051c4.33-2.24,7.629-4.431,9.561-8.25
			c0.6-1.19,0.859-2.57,1.539-3.701c0.449-0.75,1.381-1.689,2.09-1.689c0.791,0,1.57,0.98,2.58,1.68
			c0.98-0.59,2.369-1.539,3.859-2.299c1.971-1.011,4.16-0.83,5.281,0.979c0.719,1.17,0.779,3.44,0.119,4.649
			c-1.66,3.03-3.891,5.73-6.379,9.26c1.43-0.859,2.34-1.27,3.08-1.879c2.549-2.121,5-4.371,7.59-6.44
			c0.629-0.5,1.66-0.511,2.51-0.74c0.049,1.011,0.57,2.46,0.09,2.96c-3.93,4.12-7.58,8.78-13.49,10.11
			c-1.211,0.271-3.279-0.41-3.949-1.36c-0.621-0.9-0.371-3.029,0.299-4.109c1.83-2.94,4.09-5.61,6.18-8.391l-0.58-0.82
			c-1.369,0.84-3.25,1.351-4.029,2.58c-2.76,4.351-5.25,8.9-7.631,13.48c-1.139,2.21-1.789,4.68-2.689,7.02
			c-0.289,0.75-0.49,1.75-1.061,2.121c-1,0.649-2.25,0.909-3.389,1.33c-0.301-1.111-1.061-2.351-0.801-3.301
			c0.621-2.22,1.711-4.32,2.641-6.46C76.89,533.235,77.61,531.706,78.589,529.536z"/>
		<path fill-rule="evenodd" clip-rule="evenodd" fill="#FFFFFF" d="M40.039,528.126c-2.04,1.42-3.75,2.859-5.67,3.91
			c-4.739,2.579-9.54-0.021-9.28-5.441c0.211-4.489,1.18-9.069,2.631-13.329c2.109-6.19,5.619-11.671,11.049-15.57
			c4.891-3.51,9.701-2.84,12.82,1.74c0.57,0.83,1.021,1.989,0.93,2.96c-0.069,0.9-0.75,2.05-1.5,2.47
			c-0.449,0.25-1.809-0.479-2.329-1.13c-3.511-4.4-5.31-4.59-9.06-0.33c-4.791,5.43-7.67,11.84-9.041,18.95
			c-0.039,0.181-0.08,0.38-0.039,0.54c0.41,1.59,0.83,3.16,1.239,4.75c1.431-0.561,3.08-0.811,4.229-1.71
			c3.641-2.86,6.611-6.29,7.761-11c0.25-1.03,0.51-2.2,1.17-2.97c0.59-0.7,1.851-1.43,2.569-1.23c0.681,0.18,1.451,1.551,1.451,2.4
			c0.01,1.49-0.451,3.01-0.891,4.459c-1.71,5.561-3.46,11.111-5.27,16.641c-0.59,1.801-0.961,4.68-3.42,3.92
			c-2.42-0.75-1.041-3.35-0.67-5.18C39.039,531.415,39.55,529.896,40.039,528.126z"/>
	</g>
</g>
<g>
	
		<linearGradient id="SVGID_16_" gradientUnits="userSpaceOnUse" x1="-81.3438" y1="741.2949" x2="13.4025" y2="652.2816" gradientTransform="matrix(1 0 0 -1 102.3999 310.0098)">
		<stop  offset="0" style="stop-color:#FFDD53"/>
		<stop  offset="0.7179" style="stop-color:#DFB300"/>
	</linearGradient>
	<circle fill="url(#SVGID_16_)" cx="65" cy="-390" r="65"/>
	<g>
		<polygon fill-rule="evenodd" clip-rule="evenodd" fill="#FFFFFF" points="79.655,-402.229 92.376,-402.229 89.614,-428.8 
			42.056,-428.8 37.625,-383.569 79.104,-383.569 77.265,-368.35 64.405,-364.28 50.715,-368.02 50.005,-377.35 37.625,-377.35 
			39.495,-358.62 64.405,-351.2 89.065,-358.729 92.376,-396.63 51.045,-396.78 52.694,-415.93 78.626,-415.37 		"/>
	</g>
</g>
<g>
	
		<linearGradient id="SVGID_17_" gradientUnits="userSpaceOnUse" x1="-81.3438" y1="481.2939" x2="13.4018" y2="392.2812" gradientTransform="matrix(1 0 0 -1 102.3999 310.0098)">
		<stop  offset="0" style="stop-color:#CDDC2B"/>
		<stop  offset="0.7179" style="stop-color:#99CA3B"/>
	</linearGradient>
	<circle fill="url(#SVGID_17_)" cx="65" cy="-130" r="65"/>
	<g>
		<path fill-rule="evenodd" clip-rule="evenodd" fill="#FFFFFF" d="M93.042-98.769c-4.449-3.17-8.9-6.319-13.33-9.5
			c-5.98-4.299-11.939-8.64-17.93-12.93c-3.301-2.359-5.551-5.439-6.68-9.35c-0.359-1.26-0.75-2.5-1.189-3.73
			c-0.25-0.71-0.102-1.21,0.43-1.74c1.289-1.24,2.549-2.52,3.77-3.83c0.52-0.549,1.051-0.709,1.74-0.439l0.119,0.04
			c6.411,1.26,11.26,4.62,15.151,9.989c6.65,9.211,13.57,18.221,20.34,27.351c0.24,0.33,0.5,0.64,0.75,0.96
			c0,1.061,0.42,2.53-0.109,3.061C95.571-98.358,94.103-98.769,93.042-98.769z"/>
		<path fill-rule="evenodd" clip-rule="evenodd" fill="#FFFFFF" d="M34.163-161.358c2.67,1.15,5.549,1.59,8.33,2.35
			c2.709,0.75,5.389,1.57,7.789,3.101c3.891,2.479,5.42,6.11,5.211,10.61c-0.031,0.529-0.281,0.92-0.631,1.27
			c-1.49,1.51-2.99,3-4.449,4.53c-0.5,0.521-1.061,0.69-1.762,0.649c-5.26-0.31-8.93-2.899-11.1-7.68
			c-1.689-3.71-2.309-7.699-3.209-11.619c-0.191-0.841-0.441-1.65-0.67-2.471C33.743-160.929,33.413-161.509,34.163-161.358z"/>
		<path fill-rule="evenodd" clip-rule="evenodd" fill="#FFFFFF" d="M33.672-99.509c1.439-5.209,2.879-10.43,4.299-15.649
			c0.191-0.68,0.41-1.3,0.93-1.819c3.531-3.541,7.041-7.11,10.58-10.66c0.971-0.98,1.051-0.94,1.59,0.35
			c0.4,0.98,0.781,1.98,1.311,2.891c0.43,0.75,0.301,1.219-0.279,1.789c-2.59,2.541-5.121,5.141-7.701,7.67
			c-0.75,0.74-1.279,1.53-1.52,2.57c-0.389,1.67-0.879,3.311-1.359,4.95c-0.221,0.76-0.16,1.101,0.76,0.83
			c1.91-0.55,3.84-1.07,5.76-1.591c0.621-0.17,1.061-0.58,1.49-1.02c2.529-2.54,5.08-5.05,7.58-7.619
			c0.721-0.75,1.27-0.951,2.109-0.181c0.781,0.71,1.68,1.29,2.541,1.91c0.52,0.37,0.709,0.69,0.16,1.239
			c-3.41,3.391-6.801,6.791-10.191,10.19c-0.398,0.399-0.91,0.511-1.43,0.64l-15.08,4.03c-0.199,0.05-0.379,0.14-0.57,0.22
			C34.163-98.788,33.452-98.519,33.672-99.509z"/>
		<path fill-rule="evenodd" clip-rule="evenodd" fill="#FFFFFF" d="M96.212-148.158l-15.029,15c-1.24,1.24-1.24,1.24-2.301-0.14
			c-0.52-0.68-1-1.391-1.59-2.01c-0.641-0.681-0.59-1.16,0.08-1.82c3.51-3.45,6.939-6.98,10.471-10.42
			c0.83-0.811,0.77-1.26-0.041-1.99c-1.26-1.141-2.469-2.359-3.619-3.62c-0.621-0.68-1-0.659-1.65-0.01
			c-3.529,3.61-7.119,7.14-10.65,10.75c-0.699,0.71-1.27,0.95-2.199,0.38c-0.82-0.5-1.76-0.82-2.67-1.17
			c-1.441-0.561-1.451-0.551-0.311-1.689c4.189-4.201,8.391-8.4,12.58-12.611c1.26-1.27,2.49-2.559,3.74-3.85h0.49l12.699,12.721
			V-148.158z"/>
		<path fill-rule="evenodd" clip-rule="evenodd" fill="#FFFFFF" d="M74.901-138.248c-0.648-0.351-1.209-0.89-1.639-1.511
			c-0.4-0.559,0.279-0.84,0.58-1.159c2.84-2.899,5.719-5.761,8.539-8.681c0.76-0.789,1.26-0.819,2.061-0.029
			c0.811,0.811,0.879,1.32,0.02,2.16c-2.879,2.8-5.689,5.67-8.529,8.51C75.651-138.679,75.423-138.308,74.901-138.248z"/>
		<path fill-rule="evenodd" clip-rule="evenodd" fill="#FFFFFF" d="M49.362-112.488c-0.76-0.38-1.291-0.96-1.721-1.579
			c-0.369-0.511,0.221-0.801,0.5-1.091c1.801-1.819,3.621-3.62,5.41-5.44c0.49-0.489,0.951-0.869,1.451-0.09
			c0.389,0.631,1.779,0.971,0.619,2.101c-1.879,1.85-3.73,3.739-5.6,5.6C49.833-112.798,49.583-112.658,49.362-112.488z"/>
	</g>
</g>
</svg>
