<?xml version="1.0" encoding="utf-8"?>
<!-- Generator: Adobe Illustrator 16.0.0, SVG Export Plug-In . SVG Version: 6.00 Build 0)  -->
<!DOCTYPE svg PUBLIC "-//W3C//DTD SVG 1.1//EN" "http://www.w3.org/Graphics/SVG/1.1/DTD/svg11.dtd">
<svg version="1.1" id="圖層_1" xmlns="http://www.w3.org/2000/svg" xmlns:xlink="http://www.w3.org/1999/xlink" x="0px" y="0px"
	 width="117.432px" height="37.828px" viewBox="0 0 117.432 37.828" enable-background="new 0 0 117.432 37.828"
	 xml:space="preserve">
<path fill="#F8D90B" d="M21.15,8.721c1.788,1.561,2.682,3.769,2.682,6.624c0,3.001-0.895,5.328-2.682,6.984
	c-1.788,1.656-4.314,2.484-7.578,2.484l-3.96,0.036v6.768H2.124V6.381h11.448C16.836,6.381,19.362,7.161,21.15,8.721z
	 M15.822,18.153c0.612-0.6,0.918-1.464,0.918-2.592c0-1.104-0.306-1.95-0.918-2.538c-0.612-0.588-1.482-0.882-2.61-0.882h-3.6v6.911
	h3.6C14.34,19.053,15.21,18.753,15.822,18.153z"/>
<path fill="#F8D90B" d="M26.712,6.381H34.2v25.236h-7.488V6.381z"/>
<path fill="#F8D90B" d="M55.548,6.381h6.839v25.236h-6.372l-10.692-14.04v14.04h-6.876V6.381h6.408l10.692,14.076V6.381z"/>
<path fill="#F8D90B" d="M91.8,31.617h-8.964l-5.904-9.288l-2.808,3.096v6.192h-7.488V6.381h7.488v10.116l8.459-10.116h8.641
	l-9.18,10.225L91.8,31.617z"/>
<path fill="#F8D90B" d="M117.43,6.381l-9.071,17.244v7.992h-7.488V23.77L91.619,6.381h7.488l5.508,10.296l5.364-10.296H117.43z"/>
</svg>
